<svg width="1000" height="1000" viewBox="0 0 1000 1000" fill="none" xmlns="http://www.w3.org/2000/svg">
<g clip-path="url(#clip0_2002_9)">
<rect width="1000" height="1000" rx="370" fill="#1C1919"/>
<path d="M289.125 701H161.199V286.455H294.793C335.006 286.455 369.416 294.754 398.024 311.352C426.632 327.815 448.56 351.497 463.809 382.399C479.058 413.166 486.682 450.006 486.682 492.918C486.682 536.099 478.99 573.276 463.607 604.448C448.223 635.485 425.822 659.37 396.405 676.103C366.987 692.701 331.227 701 289.125 701ZM211.398 656.469H285.886C320.162 656.469 348.567 649.857 371.103 636.632C393.638 623.408 410.439 604.583 421.504 580.158C432.57 555.734 438.102 526.653 438.102 492.918C438.102 459.452 432.637 430.641 421.707 406.486C410.776 382.197 394.448 363.575 372.722 350.62C350.996 337.531 323.94 330.986 291.554 330.986H211.398V656.469ZM690.716 707.477C661.568 707.477 636.469 700.595 615.418 686.831C594.366 673.067 578.173 654.107 566.838 629.952C555.503 605.798 549.835 578.202 549.835 547.165C549.835 515.588 555.638 487.722 567.243 463.567C578.983 439.278 595.311 420.318 616.227 406.689C637.278 392.925 661.838 386.043 689.906 386.043C711.767 386.043 731.469 390.091 749.011 398.188C766.554 406.284 780.925 417.619 792.126 432.193C803.326 446.767 810.276 463.77 812.974 483.202H765.205C761.561 469.033 753.464 456.483 740.915 445.553C728.5 434.487 711.767 428.955 690.716 428.955C672.094 428.955 655.766 433.812 641.732 443.528C627.832 453.109 616.969 466.671 609.143 484.214C601.451 501.621 597.605 522.065 597.605 545.545C597.605 569.565 601.384 590.482 608.94 608.294C616.632 626.107 627.428 639.938 641.327 649.789C655.361 659.64 671.824 664.565 690.716 664.565C703.131 664.565 714.398 662.406 724.519 658.088C734.64 653.77 743.209 647.562 750.226 639.466C757.243 631.369 762.236 621.653 765.205 610.318H812.974C810.276 628.67 803.596 645.201 792.935 659.91C782.41 674.484 768.443 686.089 751.036 694.725C733.763 703.227 713.656 707.477 690.716 707.477Z" fill="white" fill-opacity="0.73"/>
</g>
<defs>
<clipPath id="clip0_2002_9">
<rect width="1000" height="1000" fill="white"/>
</clipPath>
</defs>
</svg>
